<svg id="Layer_1" data-name="Layer 1" xmlns="http://www.w3.org/2000/svg" viewBox="0 0 85.41 74.28"><title>Dirham</title><path d="M7.53,74.28c.35-.45.68-.86,1-1.29a12.53,12.53,0,0,0,1.7-3.76A25.8,25.8,0,0,0,11.14,62c0-4.44,0-8.87,0-13.31v-.38l-.45,0H6.84a6.3,6.3,0,0,1-5.62-3.26A8.37,8.37,0,0,1,0,40.5c0-.54,0-1.08,0-1.71.19.16.34.27.47.4a5.65,5.65,0,0,0,3,1.6,3.94,3.94,0,0,0,.77.07h6.6l.32,0c0-.13,0-.25,0-.37,0-2.21,0-4.42,0-6.64,0-.33-.1-.41-.42-.4h-4A6.09,6.09,0,0,1,1.63,30.8a8.23,8.23,0,0,1-1.63-5V23.91l.78.68A4.85,4.85,0,0,0,4.08,26c2.27,0,4.54,0,6.82,0l.21,0c0-.11,0-.22,0-.33,0-4.76,0-9.53,0-14.3a21.13,21.13,0,0,0-1.89-8.7A8.7,8.7,0,0,0,7.62.21,1.18,1.18,0,0,1,7.51,0l.23,0C17.15,0,26.57,0,36,0a52.61,52.61,0,0,1,8.85.83,42.85,42.85,0,0,1,9.61,2.79,32.81,32.81,0,0,1,7.81,4.69,29.46,29.46,0,0,1,6.1,6.7,31.15,31.15,0,0,1,2.88,5.41A33.8,33.8,0,0,1,73,25.71c.06.29.24.29.46.29,1.74,0,3.48,0,5.23,0a6.25,6.25,0,0,1,5.51,3.16,8.22,8.22,0,0,1,1.25,4.58V35.5c-.45-.38-.83-.73-1.25-1a4.49,4.49,0,0,0-2.73-1c-2.36,0-4.72,0-7.08,0l-.12,0v7.39l.37,0h4.19a6,6,0,0,1,4.92,2.52,8.06,8.06,0,0,1,1.7,5.17v1.82c-.29-.26-.53-.45-.74-.66a5.23,5.23,0,0,0-3.74-1.42c-2.49,0-5,0-7.45,0-.3,0-.43.08-.5.38a34.49,34.49,0,0,1-2.62,7.38,30,30,0,0,1-4.24,6.44,30.87,30.87,0,0,1-4.63,4.29,33.84,33.84,0,0,1-9,4.75,44.32,44.32,0,0,1-7.78,2,61.16,61.16,0,0,1-10.11.79H7.53M60.39,26c0-.11,0-.17,0-.23-.37-1.57-.7-3.15-1.13-4.71a25.79,25.79,0,0,0-3.12-7,20.26,20.26,0,0,0-5.59-5.89A22.32,22.32,0,0,0,43.74,5a34.29,34.29,0,0,0-9-1.23c-4,0-8,0-12,0-.36,0-.46.1-.46.45q0,10.73,0,21.43c0,.33.1.41.42.41H59.94l.45,0m0,22.32h-.86q-18.39,0-36.8,0c-.33,0-.48.05-.47.43q0,10.68,0,21.35c0,.5,0,.5.48.5,3.6,0,7.19,0,10.79,0a38.54,38.54,0,0,0,7.79-.84,26.68,26.68,0,0,0,6.49-2.24,20.45,20.45,0,0,0,4.24-2.82,21.31,21.31,0,0,0,3.67-4.09,24.32,24.32,0,0,0,3-5.89c.42-1.2.78-2.42,1.11-3.65.23-.88.39-1.78.59-2.74M41.69,40.86h19c.52,0,.54,0,.54-.53,0-2.16,0-4.32,0-6.49,0-.35-.14-.42-.46-.42-2,0-4,0-6,0H22.79c-.51,0-.52,0-.51.53,0,2.17,0,4.35,0,6.52,0,.33.11.39.4.39h19"/></svg>